PathFileType	4	(X/Y/Z)	D:\TRACE\v60_Jaco2_6-2-23\BothDRS_Motion3_10-v60.trc
DataRate	CameraRate	NumFrames	NumMarkers	Units	OrigDataRate	OrigDataStartFrame	OrigNumFrames
100.00	100.00	      38	9	mm	100.00	2626	      7000
Frame#	Time	front left toe			Front right toe			aft left toe			aft right toe			Arm			FL body			FR body			AL Body			AR Body			
		X1	Y1	Z1	X2	Y2	Z2	X3	Y3	Z3	X4	Y4	Z4	X5	Y5	Z5	X6	Y6	Z6	X7	Y7	Z7	X8	Y8	Z8	X9	Y9	Z9	

2626	26.250	-164.27600	41.30095	-243.59309	240.52866	102.00500	-224.21245	-132.92427	47.61376	400.90808	210.31235	-19.43554	379.28632	45.34284	1138.18274	-563.46191	-29.92637	547.67078	-394.21402	128.90791	544.59009	-394.34714	-23.65635	502.59058	549.18506	128.28703	491.03534	549.22308	
2627	26.260	-164.49057	41.34038	-243.56026	238.82368	92.44522	-224.50977	-132.09528	38.51241	401.48132	210.03502	-19.48141	379.31671	45.21402	1137.90613	-562.85864	-30.45074	547.44861	-393.28400	128.36450	544.50970	-393.97223	-22.90633	502.25589	549.55029	129.64293	490.78915	549.67352	
2628	26.270	-164.75226	41.33167	-243.49443	238.78825	84.21705	-224.56981	-131.42287	30.16161	401.94925	209.82249	-19.58708	379.30026	44.75092	1137.81226	-562.25989	-30.35678	547.39337	-392.96271	127.60669	544.40332	-393.41742	-21.57486	502.33340	550.33167	130.47850	490.81979	550.59399	
2629	26.280	-165.15697	41.22906	-243.34596	239.23236	75.77228	-224.49767	-130.79382	22.31461	402.53107	209.37518	-19.75600	379.28448	44.75245	1137.68091	-561.91882	-30.53674	547.15033	-392.49274	127.50281	544.13849	-393.13031	-20.57938	501.96030	550.76440	131.57672	490.11084	550.52020	
2630	26.290	-165.67163	41.24816	-243.36986	239.25580	68.33829	-223.99606	-130.23798	15.63156	402.87610	209.23686	-19.84039	379.24356	44.76223	1137.36560	-561.60999	-30.74414	546.96124	-392.23181	127.25721	543.72693	-392.84381	-19.87415	501.90210	551.11499	132.55048	489.91168	550.60944	
2631	26.300	-165.88284	41.11635	-243.28030	240.18591	62.54904	-223.96370	-128.74110	8.74260	403.05630	208.79640	-20.01499	379.17621	44.75281	1137.17627	-561.36835	-30.95579	546.65198	-391.82907	127.11806	543.15686	-392.21423	-18.34616	501.59195	551.52411	133.38892	489.92456	550.64612	
2632	26.310	-166.19234	41.08033	-243.21326	241.12747	56.89352	-224.01958	-127.90768	2.72614	403.02243	208.53642	-20.12683	379.07617	44.89981	1136.90027	-561.29895	-31.09600	546.53375	-391.57925	126.95248	542.99689	-392.21838	-17.56514	501.93335	551.82727	134.68852	489.81845	550.85742	
2633	26.320	-166.37624	41.07743	-243.08733	243.04683	50.40689	-223.79951	-126.56055	-3.71507	402.92068	208.26927	-20.18670	379.09708	45.06201	1136.50940	-561.47717	-31.15415	546.28033	-391.34238	127.10511	542.71387	-392.55246	-16.13618	501.98859	552.05145	135.59767	489.94226	551.02008	
2634	26.330	-166.64636	41.05059	-242.96007	244.77548	44.24368	-223.87599	-125.36691	-10.27997	402.83020	208.15425	-20.20200	379.07813	45.14046	1136.13184	-561.67548	-31.13757	546.19440	-391.21420	127.08658	542.56958	-392.63803	-15.32212	502.03177	552.21222	136.98694	490.01758	550.97845	
2635	26.340	-167.05023	41.01680	-242.86534	243.20341	42.72107	-227.53104	-125.14303	-16.04903	402.60904	207.92612	-20.20943	379.11392	44.92574	1135.86499	-561.91211	-31.13096	546.11395	-391.17642	127.11787	542.51245	-392.69223	-14.16016	502.27264	552.12476	138.15071	489.82214	549.69110	
2636	26.350	-167.35886	41.07652	-242.86786	245.13985	41.13794	-225.46715	-125.59975	-17.57740	402.33908	207.50320	-20.35407	379.04654	44.73974	1135.83875	-562.39117	-31.03585	546.40930	-391.01624	127.30340	542.67389	-392.67847	-12.81126	502.76688	552.32025	138.90648	490.29086	549.42700	
2637	26.360	-167.52705	41.20285	-242.68263	244.14276	40.47256	-226.60892	-126.62430	-16.59705	401.55386	207.21289	-20.06737	378.93829	44.35929	1135.92468	-563.07800	-31.14828	546.82135	-390.90488	126.94390	543.09198	-392.62375	-11.78219	504.36273	552.38550	140.22433	491.88510	549.49274	
2638	26.370	-167.63083	41.64792	-243.29703	244.52971	41.23012	-225.75432	-126.79214	-16.45691	401.47565	207.26683	-19.30880	378.62885	44.04807	1136.16260	-563.74921	-31.29319	547.06866	-390.76489	126.55346	543.46954	-392.67807	-10.55308	506.70105	552.71674	141.57877	493.78442	549.39587	
2639	26.380	-166.24623	44.26334	-242.14146	244.95743	39.85760	-225.75713	-126.48531	-16.63154	401.80310	206.39906	-17.13425	379.41791	43.62496	1136.72925	-564.83911	-31.53074	547.26709	-390.44400	126.27635	543.76953	-392.93198	-9.25661	508.73862	553.10651	142.33310	495.74792	549.51593	
2640	26.390	-162.34000	47.90045	-238.04202	244.59073	39.66111	-226.17294	-126.56201	-16.45115	401.87042	203.50182	-13.79348	384.07458	43.92414	1136.83020	-565.97809	-31.77883	547.79596	-390.03146	126.26093	544.04651	-392.92218	-8.05908	510.13876	553.44873	144.12712	497.05267	549.68250	
2641	26.400	-157.51408	51.25317	-233.42430	244.79453	39.80522	-225.81615	-126.79798	-16.42202	401.64932	201.14325	-5.32756	387.16086	43.63008	1136.41357	-566.75793	-31.95892	548.51190	-389.86285	126.07883	544.28589	-392.80753	-7.13201	511.22943	553.40802	145.14507	497.69821	549.77679	
2642	26.410	-155.96083	62.29194	-232.62129	244.73801	39.76268	-225.82893	-127.15887	-16.34332	401.66040	199.24222	4.19339	388.74509	43.95601	1135.56604	-566.95032	-32.07878	548.48126	-389.67038	125.99934	544.37720	-392.73111	-6.51090	512.00580	553.83643	145.16136	498.81976	549.86871	
2643	26.420	-155.28418	73.78327	-232.77222	244.11778	39.55366	-225.96999	-127.29580	-16.31297	401.64734	199.93224	17.34704	388.23709	44.22453	1135.23181	-567.03394	-31.84448	547.99237	-389.25702	126.16602	544.02484	-392.49664	-6.06341	512.77649	554.01135	146.23190	499.52148	550.22705	
2644	26.430	-156.12947	86.21006	-233.24113	244.23473	39.46446	-225.79855	-127.50594	-16.12879	401.83023	203.03894	30.02448	387.49316	44.13446	1135.39697	-567.02728	-31.58988	547.56067	-389.02875	126.24886	543.61127	-392.01340	-6.19372	513.29254	554.54901	145.71042	499.72958	550.46344	
2645	26.440	-156.09293	99.80325	-233.11469	242.87054	38.82221	-226.04343	-128.03232	-16.23085	401.66818	208.56764	43.63042	387.24521	44.15897	1135.17847	-566.81738	-31.34673	547.23187	-388.86813	127.24939	543.16443	-392.25137	-6.40086	513.07733	554.87421	145.24753	499.45273	550.80286	
2646	26.450	-155.70164	112.96787	-232.64320	242.39485	38.53323	-226.06744	-128.10376	-16.78129	401.60876	213.59885	56.31593	387.33527	44.26552	1134.69763	-566.24463	-31.29378	547.00946	-388.73337	127.60862	542.67334	-391.68958	-7.03112	512.24951	555.06055	144.62802	498.95270	551.01166	
2647	26.460	-154.90881	125.27258	-231.56947	241.71091	38.18811	-226.31882	-128.83722	-16.77198	401.75943	217.12376	68.65749	387.64063	44.88279	1134.10742	-565.79913	-31.07657	546.83728	-388.47101	127.62909	542.48651	-391.23599	-7.41480	511.95999	555.32678	144.60878	498.23843	551.57574	
2648	26.470	-153.98418	136.78000	-230.45261	241.70570	38.20146	-226.30644	-129.15674	-16.67888	401.72678	219.92876	80.07687	388.07568	46.25936	1133.78601	-565.32404	-30.80470	546.53516	-387.97678	127.65787	542.26929	-390.86041	-7.54709	511.47339	555.52832	144.38435	497.79364	552.21112	
2649	26.480	-153.17911	147.17897	-229.69873	241.46271	38.07570	-226.38434	-129.29907	-16.63913	401.69196	221.45908	90.87433	388.59921	47.03421	1133.84460	-564.88873	-30.79646	546.36438	-387.53085	127.68768	542.15948	-390.44943	-8.35902	511.08817	556.06909	143.72137	497.65384	552.61499	
2650	26.490	-152.38066	156.60054	-228.76701	241.33420	38.02002	-226.40359	-128.88467	-17.10568	401.53030	222.21078	100.62354	389.73413	48.13722	1133.59900	-564.37646	-30.72476	545.87036	-386.81866	127.24210	541.59485	-389.62839	-8.67052	511.08090	556.70105	143.59647	497.29846	553.08539	
2651	26.500	-151.97896	164.37834	-227.34142	240.90146	37.86463	-226.42274	-129.15358	-17.29257	401.46844	222.97009	107.91167	390.84985	48.82791	1133.34424	-563.53613	-30.92386	545.64514	-386.48203	127.44493	541.03845	-388.68756	-9.18370	510.90253	557.24567	142.75623	497.26901	553.81909	
2652	26.510	-151.86180	170.50343	-225.74426	240.84315	37.86424	-226.24973	-129.86504	-17.28349	401.45233	223.93729	112.51315	392.77448	48.69053	1133.16296	-562.75616	-30.91029	545.30560	-385.73642	127.84942	540.75629	-388.38461	-10.16429	510.96530	557.92615	141.58963	496.97910	554.60626	
2653	26.520	-152.41695	173.31055	-223.58800	241.06795	37.81487	-225.88641	-130.30930	-17.17654	401.42490	224.93964	114.14786	394.91718	48.69032	1132.95349	-562.30341	-30.51929	545.24420	-384.85135	127.84335	540.56793	-387.41531	-10.87541	511.24454	558.52478	140.64987	497.20013	555.54700	
2654	26.530	-152.73691	172.18974	-220.87825	241.16513	37.86381	-225.75632	-131.01918	-16.59706	401.45447	226.28326	112.39359	398.04175	48.87602	1132.73926	-561.80817	-30.66274	545.37897	-384.49847	127.93080	540.44952	-386.62192	-11.83531	511.41010	559.19678	139.02571	497.26077	556.37579	
2655	26.540	-152.79185	168.50055	-217.72340	241.35655	38.00495	-225.56406	-131.19601	-16.34518	401.33563	226.90858	108.58657	400.89392	49.61657	1132.40417	-561.26282	-30.73856	545.45667	-383.58792	128.10371	540.54645	-385.85144	-12.75250	511.76987	560.01459	138.07394	497.64096	557.38525	
2656	26.550	-152.26582	163.34274	-214.63109	241.56976	38.12433	-225.23509	-131.50610	-16.24937	401.35236	228.14531	104.24696	404.12781	50.38113	1132.11401	-560.99823	-30.59071	545.48035	-382.78452	128.05864	540.21863	-384.47821	-13.76074	512.15283	560.97443	137.11365	497.66791	558.58026	
2657	26.560	-151.39941	157.57982	-211.68417	241.07368	37.96236	-225.23238	-131.79207	-16.21404	401.48175	228.51811	98.80202	407.16702	51.65236	1131.75195	-560.24359	-30.68768	545.26495	-381.73868	127.23096	540.11469	-383.41888	-15.09926	512.31952	562.01111	135.96533	497.84799	559.36102	
2658	26.570	-150.27917	150.79051	-209.11632	239.38649	37.19172	-225.70927	-131.88658	-16.24993	401.57959	228.21632	91.96604	410.26987	52.64413	1131.61584	-559.50873	-30.95462	545.16229	-380.93692	126.94669	539.88245	-382.00272	-15.60654	512.38391	562.99133	135.11343	498.05273	560.67639	
2659	26.580	-149.62491	142.78572	-206.66718	239.01790	37.06622	-225.62625	-131.97067	-16.23410	401.54440	228.20280	83.97570	413.66727	53.37869	1131.43066	-558.25562	-30.83369	545.00439	-380.09543	127.07051	539.69440	-381.20825	-17.03929	512.77765	563.98212	134.32484	498.34839	561.69666	
2660	26.590	-149.40111	133.81677	-203.98839	238.60738	36.76691	-225.77614	-132.16986	-16.08233	401.41727	228.99168	75.72215	416.52573	53.30215	1131.57581	-557.43201	-30.87297	544.81201	-379.12918	128.06793	539.25189	-380.38486	-17.95977	512.96027	564.86676	133.24466	498.48486	562.83069	
2661	26.600	-148.71173	123.91718	-201.04680	238.10822	36.44367	-226.03346	-132.43924	-15.98486	401.28012	229.07106	66.42824	419.57269	53.23383	1131.47058	-556.22571	-30.98530	544.70685	-378.36987	127.74171	539.30322	-379.26697	-19.34566	513.19159	565.63843	132.05652	498.53894	564.09515	
2662	26.610	-147.97546	113.38544	-197.75540	237.88771	36.19626	-226.17047	-132.65721	-16.00110	401.22693	229.08846	56.04584	423.40900	53.32810	1131.27539	-555.37134	-30.61235	544.33539	-377.07233	127.57057	539.03406	-378.23636	-20.38478	513.00983	566.66492	130.56609	498.36514	565.13263	
2663	26.620	-146.99338	102.89691	-194.21198	237.86963	36.06707	-226.18788	-132.85985	-15.92532	401.18900	228.61821	45.57419	427.07864	53.05071	1131.08447	-554.42700	-30.80281	544.31915	-376.33392	127.07972	538.96875	-376.57495	-21.86780	512.97339	567.60217	129.96477	498.37469	566.45178	
